# xmcd
#
# Track frame offsets:
# 150
# 19006
# 30760
# 43834
# 53617
# 67134
# 79883
# 90216
# 102091
# 116774
#
# Disc length: 1715 seconds
#
#
# Revision: 0
# Processed by: cddbd v1.5.1PL2 Copyright (c) Steve Scherf et al.
# Submitted via: FreeRIP 2.945 
#
DISCID=7106b10a
DTITLE=Gene Watson - Beautifyl Country
DYEAR=1978
DGENRE=Country
TTITLE0=Old Man And His Horn
TTITLE1=Cowboys Dont Get Lucky All The Time
TTITLE2=I Won't Be Sleeping Alone
TTITLE3=Hey Barnum and Bailey
TTITLE4=I'd Love To Live With You Agai
TTITLE5=I Don't Need A Thing At All
TTITLE6=Raining In Dallas
TTITLE7=It Don't Hurt Me Half As Bad
TTITLE8=I Knew We Could Never Love For Long
TTITLE9=He Little Thing'd Her Out Of My Arms
EXTD=
EXTT0=
EXTT1=
EXTT2=
EXTT3=
EXTT4=
EXTT5=
EXTT6=
EXTT7=
EXTT8=
EXTT9=
PLAYORDER=
